HIERARCHY
ROOT Hips
{
	OFFSET -3.958830 18.904000 13.208200
	CHANNELS 6 Xposition Yposition Zposition Zrotation Yrotation Xrotation 
	JOINT LHipJoint
	{
		OFFSET 0.000000 0.000000 0.000000
		CHANNELS 3 Zrotation Yrotation Xrotation
		JOINT LeftUpLeg
		{
			OFFSET 1.800000 -1.400000 0.085000
			CHANNELS 3 Zrotation Yrotation Xrotation
			JOINT LeftLeg
			{
				OFFSET 2.215000 -6.000000 0.000000
				CHANNELS 3 Zrotation Yrotation Xrotation
				JOINT LeftFoot
				{
					OFFSET 2.500000 -6.900000 0.000000
					CHANNELS 3 Zrotation Yrotation Xrotation
					JOINT LeftToeBase
					{
						OFFSET 0.200000 -0.500000 1.950000
						CHANNELS 3 Zrotation Yrotation Xrotation
						End Site
						{
							OFFSET 0.000000 0.000000 0.000000
						}
					}
				}
			}
		}
	}
	JOINT RHipJoint
	{
		OFFSET 0.000000 0.000000 0.000000
		CHANNELS 3 Zrotation Yrotation Xrotation
		JOINT RightUpLeg
		{
			OFFSET -1.800000 -1.400000 0.085000
			CHANNELS 3 Zrotation Yrotation Xrotation
			JOINT RightLeg
			{
				OFFSET -2.215000 -6.000000 0.000000
				CHANNELS 3 Zrotation Yrotation Xrotation
				JOINT RightFoot
				{
					OFFSET -2.500000 -6.900000 0.000000
					CHANNELS 3 Zrotation Yrotation Xrotation
					JOINT RightToeBase
					{
						OFFSET -0.200000 -0.500000 1.950000
						CHANNELS 3 Zrotation Yrotation Xrotation
						End Site
						{
							OFFSET 0.000000 0.000000 0.000000
						}
					}
				}
			}
		}
	}
	JOINT LowerBack
	{
		OFFSET 0.000000 0.000000 0.000000
		CHANNELS 3 Zrotation Yrotation Xrotation
		JOINT Spine
		{
			OFFSET -0.087000 1.940000 -0.288900
			CHANNELS 3 Zrotation Yrotation Xrotation
			JOINT Spine1
			{
				OFFSET 0.000000 1.950000 0.060000
				CHANNELS 3 Zrotation Yrotation Xrotation
				JOINT Neck
				{
					OFFSET 0.000000 0.000000 0.000000
					CHANNELS 3 Zrotation Yrotation Xrotation
					JOINT Neck1
					{
						OFFSET 0.000000 1.600000 0.340000
						CHANNELS 3 Zrotation Yrotation Xrotation
						JOINT Head
						{
							OFFSET 0.000000 1.667000 -0.240000
							CHANNELS 3 Zrotation Yrotation Xrotation
							End Site
							{
								OFFSET 0.000000 0.000000 0.000000
							}
						}
					}
				}
				JOINT LeftShoulder
				{
					OFFSET 0.000000 0.000000 0.000000
					CHANNELS 3 Zrotation Yrotation Xrotation
					JOINT LeftArm
					{
						OFFSET 2.700000 1.550000 -0.730000
						CHANNELS 3 Zrotation Yrotation Xrotation
						JOINT LeftForeArm
						{
							OFFSET 5.450000 0.000000 0.000000
							CHANNELS 3 Zrotation Yrotation Xrotation
							JOINT LeftHand
							{
								OFFSET 3.450000 0.000000 0.000000
								CHANNELS 3 Zrotation Yrotation Xrotation
								JOINT LeftHandIndex1
								{
									OFFSET 0.750000 0.000000 0.000000
									CHANNELS 3 Zrotation Yrotation Xrotation
									End Site
									{
										OFFSET 0.000000 0.000000 0.000000
									}
								}
							}
						}
					}
				}
				JOINT RightShoulder
				{
					OFFSET 0.000000 0.000000 0.000000
					CHANNELS 3 Zrotation Yrotation Xrotation
					JOINT RightArm
					{
						OFFSET -2.700000 1.550000 -0.730000
						CHANNELS 3 Zrotation Yrotation Xrotation
						JOINT RightForeArm
						{
							OFFSET -5.450000 0.000000 0.000000
							CHANNELS 3 Zrotation Yrotation Xrotation
							JOINT RightHand
							{
								OFFSET -3.450000 0.000000 0.000000
								CHANNELS 3 Zrotation Yrotation Xrotation
								JOINT RightHandIndex1
								{
									OFFSET -0.750000 0.000000 0.000000
									CHANNELS 3 Zrotation Yrotation Xrotation
									End Site
									{
										OFFSET 0.000000 0.000000 0.000000
									}
								}
							}
						}
					}
				}
			}
		}
	}
}
MOTION
Frames: 12
Frame Time: 0.016667
0.400130 16.872920 -0.465190 -0.782048 -1.827531 9.158071 -14.943709 12.733632 2.648677 7.125629 -2.149884 -18.114219 -7.970404 6.083950 13.065237 -0.529455 4.644134 3.500161 -0.461680 -0.874560 -0.551700 18.497405 -11.340986 2.409247 -12.133767 1.648938 -19.105502 8.909084 -6.586738 17.113586 0.462005 -4.514120 3.175874 -0.184630 1.407770 0.264120 -4.226410 0.055775 -6.259171 10.015526 0.312267 -0.725133 -6.663745 -0.120604 3.398009 2.513706 -1.670012 -4.747541 -1.962201 5.638677 19.092809 -4.511020 5.140410 14.282620 -12.593849 7.082890 -0.670870 -60.302785 -3.875426 -2.284441 -13.593554 -15.330356 0.023798 -4.909788 2.950735 -0.275450 1.093460 -1.024450 0.263140 7.613617 -5.861966 1.050678 73.066128 5.955136 -4.642691 17.697608 25.458528 0.707827 1.915614 -1.773149 -0.587050 0.303500 0.468350 -0.005710 
0.399200 16.876750 -0.467050 -0.718926 -1.772461 9.086361 -14.929945 12.728438 2.649763 7.065313 -2.147815 -17.999750 -7.938753 6.054824 13.029567 -0.538615 4.619430 3.495468 -0.442110 -0.859700 -0.519800 18.506905 -11.366384 2.411508 -12.209681 1.639810 -19.164820 8.829294 -6.614546 17.288291 0.445066 -4.505629 3.165677 -0.182820 1.372480 0.266180 -4.260802 0.108451 -6.274385 10.453977 0.235137 -0.647993 -7.243232 -0.165847 3.577499 2.734722 -1.653498 -4.856467 -1.944581 5.535603 19.432202 -4.700370 5.234400 13.896180 -12.517535 6.759799 -0.591349 -60.006340 -3.941469 -2.324830 -13.540159 -15.459030 0.024455 -4.885221 2.949007 -0.250270 1.070590 -0.998690 0.253770 7.062078 -5.583940 1.247612 73.782032 6.222352 -4.611275 17.710175 25.596349 0.712793 1.912982 -1.772901 -0.579450 0.294730 0.458370 -0.019830 
0.395700 16.883460 -0.470310 -0.553737 -1.738766 9.006487 -14.908197 12.713395 2.652827 6.867105 -2.150544 -17.828756 -7.866598 5.980717 12.885528 -0.558260 4.567432 3.496611 -0.421290 -0.838800 -0.480400 18.522796 -11.406871 2.417285 -12.379173 1.631998 -19.356585 8.712843 -6.664407 17.591826 0.423083 -4.495277 3.151151 -0.177410 1.325770 0.264030 -4.316229 0.205139 -6.297636 11.128902 0.143446 -0.543467 -8.260350 -0.190498 3.896011 3.144031 -1.590341 -5.039582 -1.841603 5.366084 19.864603 -5.063640 5.431850 13.244340 -12.413089 6.211585 -0.464333 -59.539983 -4.041247 -2.446511 -13.177786 -15.787807 0.002511 -4.854728 2.933849 -0.215170 1.041400 -0.962160 0.239270 6.091300 -5.123838 1.589527 75.132956 6.646234 -4.595652 17.651571 25.823595 0.683608 1.903511 -1.768785 -0.574580 0.291050 0.447710 -0.039660 
0.390840 16.889760 -0.474280 -0.294995 -1.682397 8.893121 -14.882075 12.688526 2.655494 6.614227 -2.148688 -17.560752 -7.839168 5.899638 12.621455 -0.575472 4.518981 3.501797 -0.410330 -0.831360 -0.443510 18.543281 -11.449861 2.426471 -12.698874 1.627396 -19.669913 8.662275 -6.758641 17.996054 0.409272 -4.505093 3.132067 -0.176820 1.286390 0.260240 -4.385635 0.324568 -6.324233 11.956035 0.007493 -0.471149 -9.526032 -0.225985 4.341211 3.617524 -1.522696 -5.262752 -1.728834 5.170723 20.321061 -5.508020 5.639130 12.790980 -12.259012 5.467882 -0.273985 -58.933114 -4.180802 -2.550470 -12.802830 -16.033761 -0.023344 -4.834838 2.916907 -0.188540 1.020810 -0.935770 0.220490 4.937292 -4.471540 1.981518 76.595535 7.306037 -4.414310 17.738312 25.905738 0.659773 1.891899 -1.771961 -0.573570 0.287400 0.441490 -0.060940 
0.381580 16.896290 -0.479330 0.089211 -1.592584 8.721697 -14.857040 12.668067 2.661027 6.274297 -2.141451 -17.278835 -7.833141 5.831646 12.406383 -0.576045 4.459554 3.508161 -0.399070 -0.813200 -0.419220 18.562203 -11.488107 2.436383 -13.157420 1.606573 -20.009459 8.694519 -6.902579 18.494646 0.388363 -4.534056 3.103762 -0.178990 1.245930 0.257860 -4.451825 0.425077 -6.356743 12.701838 -0.144082 -0.365951 -10.848783 -0.253303 4.766033 4.072356 -1.471150 -5.500484 -1.663999 5.032528 20.961245 -5.820060 5.802120 12.403180 -12.188741 4.610357 -0.051970 -58.025428 -4.365992 -2.580132 -12.592120 -16.178990 -0.011172 -4.805582 2.912065 -0.167700 0.995250 -0.903750 0.207310 3.898830 -3.674556 2.374109 77.896634 8.063751 -4.126106 17.905198 25.951078 0.661113 1.887884 -1.779290 -0.560610 0.279480 0.433360 -0.070340 
0.372450 16.902060 -0.484040 0.469938 -1.300865 8.515571 -14.828989 12.645079 2.673043 6.018493 -2.160512 -17.120000 -7.965163 5.842163 12.433412 -0.569361 4.436168 3.504431 -0.378510 -0.795810 -0.383660 18.583900 -11.526732 2.442496 -13.621108 1.568809 -20.292174 8.740946 -7.085528 19.104029 0.361512 -4.580241 3.070364 -0.181980 1.202800 0.259160 -4.528702 0.521098 -6.395599 13.638268 -0.390670 -0.250252 -12.326888 -0.333492 5.248067 4.531831 -1.455981 -5.782566 -1.670162 4.811931 21.671045 -6.108500 5.808430 12.086540 -12.161567 3.616305 0.233076 -57.097768 -4.508478 -2.680078 -12.252159 -16.492995 -0.009618 -4.767041 2.910111 -0.141230 0.965990 -0.869230 0.199360 2.876753 -2.720248 2.805639 79.062295 8.878475 -3.849434 18.178856 26.125970 0.690130 1.884172 -1.796434 -0.546770 0.268310 0.415910 -0.081510 
0.360950 16.904800 -0.488890 0.770335 -0.957427 8.275987 -14.802605 12.632547 2.687557 5.885076 -2.177459 -17.035278 -8.120291 5.892466 12.586977 -0.579430 4.436009 3.489095 -0.365450 -0.786660 -0.351910 18.603536 -11.565684 2.441245 -13.906981 1.532571 -20.516885 8.607919 -7.220440 19.734636 0.340153 -4.608454 3.047555 -0.183270 1.160890 0.249990 -4.600110 0.595206 -6.434033 14.579327 -0.648226 -0.109500 -13.725709 -0.406388 5.722663 4.995672 -1.385702 -6.066123 -1.605136 4.616329 22.482841 -6.455010 5.884330 11.687520 -12.172905 2.575627 0.514067 -56.140016 -4.696675 -2.723163 -11.909291 -16.775921 -0.015194 -4.730851 2.893429 -0.105030 0.936280 -0.839570 0.186050 1.888387 -1.764630 3.219913 80.006733 9.730826 -3.527511 18.572524 26.400367 0.767952 1.871645 -1.804710 -0.547360 0.267990 0.407710 -0.100690 
0.349700 16.906660 -0.494770 0.950581 -0.571571 8.001403 -14.771857 12.631502 2.697967 5.855456 -2.202580 -17.034185 -8.177991 5.954633 12.950005 -0.587772 4.436846 3.468620 -0.335720 -0.763010 -0.307220 18.626301 -11.605052 2.441152 -14.094923 1.512120 -20.723747 8.450783 -7.364234 20.494042 0.304371 -4.632681 3.018970 -0.180770 1.106980 0.242250 -4.682880 0.650492 -6.475522 15.710938 -0.904756 0.096648 -15.093266 -0.443239 6.183513 5.394071 -1.359840 -6.386258 -1.641747 4.438679 23.488524 -6.583250 5.789120 11.026450 -12.380186 1.341070 0.841341 -55.083815 -4.917551 -2.737131 -11.613260 -17.005534 -0.027266 -4.675766 2.879346 -0.056380 0.889870 -0.795630 0.176710 1.208555 -0.601869 3.628592 80.537009 10.539428 -3.315433 18.906870 26.802469 0.849040 1.868610 -1.807052 -0.541210 0.268750 0.390880 -0.118960 
0.339390 16.907440 -0.499020 1.145493 -0.276744 7.737508 -14.742008 12.635731 2.704164 5.747377 -2.231804 -17.074534 -8.142039 6.015162 13.432386 -0.592118 4.438879 3.445315 -0.321050 -0.753040 -0.282410 18.648746 -11.638859 2.441582 -14.417328 1.481548 -20.893214 8.351357 -7.527659 21.177445 0.275437 -4.674750 2.983179 -0.187530 1.061810 0.240050 -4.763423 0.687446 -6.510942 16.847054 -1.088928 0.268403 -16.405569 -0.397407 6.598024 5.726002 -1.463376 -6.723033 -1.909731 4.284457 24.504456 -6.780690 5.659710 10.626240 -12.527715 0.187848 1.156030 -54.122441 -5.191177 -2.700145 -11.424242 -17.288551 -0.015498 -4.631396 2.877601 -0.018780 0.851890 -0.761740 0.163630 0.594698 0.595314 4.030489 80.934105 11.256914 -3.166569 19.167707 27.225328 0.915219 1.867166 -1.812243 -0.531320 0.260450 0.387110 -0.131910 
0.330080 16.905620 -0.502340 1.389182 -0.157915 7.512161 -14.716646 12.637954 2.703937 5.543956 -2.281125 -17.181899 -7.986096 6.070974 14.095896 -0.602416 4.449262 3.422290 -0.300130 -0.740760 -0.249880 18.668427 -11.664793 2.448077 -14.860986 1.449364 -21.005257 8.401803 -7.698611 21.646005 0.246399 -4.720998 2.949102 -0.188500 1.019280 0.243100 -4.831963 0.720004 -6.538202 17.785579 -1.160714 0.394967 -17.531167 -0.243919 6.999365 6.022158 -1.552096 -7.022958 -2.162349 4.076833 25.496975 -7.123710 5.541200 10.171430 -12.659550 -0.881179 1.426703 -53.225516 -5.546509 -2.578747 -11.248407 -17.416705 -0.015869 -4.595721 2.869908 0.019010 0.820730 -0.727700 0.154470 0.056949 1.718322 4.362238 80.996097 11.973450 -2.903777 19.670835 27.518092 1.041314 1.861260 -1.819844 -0.523680 0.254150 0.378900 -0.148070 
0.320670 16.904370 -0.503370 1.597030 -0.163893 7.269167 -14.693233 12.638159 2.704092 5.449208 -2.322267 -17.278441 -7.942740 6.177868 14.800929 -0.613159 4.492019 3.386324 -0.288990 -0.739000 -0.222840 18.686340 -11.681790 2.453893 -15.356134 1.401254 -20.891927 8.601784 -7.864436 21.807235 0.221282 -4.759781 2.919694 -0.193710 0.982170 0.244330 -4.893601 0.739297 -6.563474 18.560814 -1.160612 0.511277 -18.452941 -0.048701 7.317473 6.269314 -1.640946 -7.271560 -2.435478 3.952893 26.648184 -7.475040 5.486490 9.742020 -12.995353 -1.879117 1.679299 -52.279176 -5.825204 -2.474046 -10.889298 -17.632179 -0.035423 -4.567372 2.851539 0.058140 0.792620 -0.697660 0.139490 -0.172715 2.766941 4.594829 80.603310 12.677800 -2.528163 20.079354 27.577051 1.177388 1.860427 -1.807978 -0.521160 0.252590 0.380360 -0.165780 
0.313740 16.900180 -0.503900 1.727571 -0.325520 7.050805 -14.672614 12.641696 2.701531 5.396838 -2.369030 -17.448500 -7.853478 6.301855 15.621391 -0.621493 4.543868 3.344520 -0.285870 -0.739540 -0.206820 18.702429 -11.683873 2.467735 -15.839495 1.365925 -20.743979 8.991117 -8.063279 21.879655 0.199985 -4.802640 2.891661 -0.198030 0.949880 0.237790 -4.946664 0.732814 -6.588696 19.256266 -1.140703 0.643978 -19.188446 0.137148 7.572017 6.447116 -1.770275 -7.521721 -2.794560 4.019578 27.820517 -7.612570 5.465410 9.331880 -13.164052 -2.712375 1.875877 -51.635954 -6.227331 -2.267905 -10.415721 -17.608376 -0.081314 -4.544933 2.825208 0.092290 0.764840 -0.672310 0.122680 -0.423436 3.674042 4.831513 80.060784 13.251746 -2.270949 20.578094 28.091863 1.382852 1.858736 -1.790604 -0.522070 0.257770 0.387770 -0.180330 
